#!OML:ASF E:/inclinewalkrobotboard/Project1/Captureday1/Session1/subject1.ASF
:FULLY-SPECIFIED
:DEGREES
13
root 0 0 0 1.8192333739819924 -10.880239466769565 0.8654714417610343
lowerback -0.20232820323172707 -1.632252883970858 -2.682669275613691
upperback -0.6084536670746686 -2.1431263884803724 1.7052166324501954
thorax -0.32185742676686024 -1.0498566016341413 3.2150043990267587
lowerneck -24.595224978585296 -1.6392102908909316 -7.8037365847098
upperneck 28.4357519601056 0.3248459356216099 1.9891046543676418
head 13.676271339035264 -0.5922737940112479 2.2580165928835845
rclavicle -4.8406780444686296E-15 1.0088612347922414E-15
rhumerus -32.43068098481962 -4.328647471930772 -80.84247902567628
rradius 30.497537351149276
rwrist 19.660208004839284
rhand -17.566932873845467 8.890430057408519
rfingers 7.125019999999932
rthumb 8.68548705280808 -20.93665051947367
lclavicle -1.4644008842871146E-15 8.328904614383763E-16
lhumerus -19.442912272013807 -2.480113622335056 90.42500199552936
lradius 64.50048797734226
lwrist 1.738558296300623
lhand -28.679826549986775 20.825788939104104
lfingers 7.125020000000025
lthumb -2.038462693342324 50.80840061212798
rfemur -18.385255782953735 -0.3403098601834138 21.056847126845003
rtibia 72.6920017882847
rfoot -1.4911861992148054 -6.314434191063656
rtoes 7.611955347213396
lfemur -9.454886637581145 -3.37652232833619 -25.79014244705048
ltibia 26.05265528555033
lfoot -11.951024288597754 -0.790677052193046
ltoes 9.86865294236288
14
root 0 0 0 1.853177583076775 -10.860729362072787 0.8828611811320298
lowerback -0.22220740610847622 -1.6472607232188474 -2.719366122798649
upperback -0.575829558101144 -2.163347668228145 1.706806025022841
thorax -0.2776063302111421 -1.0618197203490356 3.2373066820352845
lowerneck -24.646853833033926 -1.6523693792536855 -7.870578534979426
upperneck 28.111605402853616 0.2849056438043547 2.113721531726153
head 13.55523222853547 -0.5813266254906965 2.297841883392259
rclavicle -5.343052519752777E-15 1.1556093715256854E-15
rhumerus -32.78908341977574 -4.872793768299774 -80.49365342504086
rradius 30.20057937796452
rwrist 19.927702762891148
rhand -17.43834924159605 8.829882266432673
rfingers 7.125019999999933
rthumb 8.809531409294774 -20.988021634453194
lclavicle -1.8998269586941367E-15 9.202486257580284E-16
lhumerus -19.84427946047227 -3.5517334974126102 90.71892218120755
lradius 64.73005503569064
lwrist 1.9437635328001241
lhand -28.70752402309689 20.95275078232669
lfingers 7.125020000000024
lthumb -2.0698661295827963 50.94459613785408
rfemur -25.405267423750978 -0.9822658755734164 20.433593713384788
rtibia 69.30457900588834
rfoot -4.698420164062474 -7.004087287400978
rtoes 5.028392450510177
lfemur -3.8844471348558107 -3.5611730577490346 -28.076290579851506
ltibia 22.622041732127272
lfoot -16.049004522563543 0.3257226481065816
ltoes 8.067586658736735
15
root 0 0 0 1.89886582760822 -10.882424283669966 0.9109384284649946
lowerback -0.281957526268223 -1.6817830408816048 -2.7554760143458474
upperback -0.5343604317709536 -2.209173007944479 1.702862496548307
thorax -0.20059662533841127 -1.087630429929317 3.2526016709045953
lowerneck -24.799051529010402 -1.6771564714613445 -7.951868704643946
upperneck 27.844112131084138 0.24251117028650715 2.221595257561769
head 13.475458887092632 -0.5735318273263724 2.3345680605329013
rclavicle -4.780962887647906E-15 9.729793404712781E-16
rhumerus -33.09617353701076 -4.993879281221451 -80.09978429275725
rradius 29.905848556070335
rwrist 20.12267751362096
rhand -17.401315649671236 8.797025051260622
rfingers 7.125019999999935
rthumb 8.845424867393751 -21.01314238071117
lclavicle -2.215491452836559E-15 5.374867951388086E-16
lhumerus -20.40031873518703 -4.753452116247804 91.0967595243072
lradius 64.99397701689304
lwrist 2.104545526341076
lhand -28.756664641845475 21.00577493339294
lfingers 7.125020000000023
lthumb -2.122328036941516 51.00493592999835
rfemur -28.192395252702134 -0.6351399711953238 19.63811872010737
rtibia 63.51521493304542
rfoot -5.3981633869823575 -7.699803382200619
rtoes 2.868964764760937
lfemur 0.7140562047701723 -3.448162300123524 -29.555309696179265
ltibia 21.2955353864619
lfoot -18.653996872989026 0.10788350575046834
ltoes 5.341686262883206
16
root 0 0 0 1.9457325552333948 -10.930886312929031 0.9431463018340681
lowerback -0.3548033298815769 -1.7250725648814447 -2.783210707022239
upperback -0.49341308217041374 -2.2665761807759877 1.6957137624241199
thorax -0.11508657771936903 -1.1190981191848932 3.259368800497559
lowerneck -25.01650589857799 -1.7050820276187937 -8.020032527115701
upperneck 27.652002805146587 0.20962554270814437 2.289351293325371
head 13.439351256368973 -0.5686178477291367 2.3586783756707765
rclavicle -3.237786168352763E-15 8.357772367842213E-16
rhumerus -33.390855589567316 -4.945688593850918 -79.65281971788869
rradius 29.575174298471484
rwrist 20.297586390800532
rhand -17.393095033646112 8.783693103801761
rfingers 7.125019999999937
rthumb 8.853219770242136 -21.015534254199668
lclavicle -1.7738722666145211E-15 6.436613273382241E-16
lhumerus -20.70607897765108 -6.043291769393175 91.2823767168131
lradius 65.42955428030484
lwrist 2.3870478446884724
lhand -28.73733222932885 21.215170388521404
lfingers 7.125020000000022
lthumb -2.109863691513995 51.22855416191346
rfemur -30.714879216248214 0.4237568367457083 18.017623221573412
rtibia 54.028352699067284
rfoot -5.486509886194407 -9.02849529905398
rtoes 0.2912473359639032
lfemur 4.401076511656305 -3.2118061108199925 -30.490665859029328
ltibia 20.500001417617227
lfoot -20.082126196226973 -0.4927818820344063
ltoes 2.670059988800574
17
root 0 0 0 2.01031065607057 -10.996559370361624 0.9890132970316288
lowerback -0.4347845204581333 -1.7844639009719545 -2.8100263246578363
upperback -0.4372764104263245 -2.3451229503880375 1.6986869888818035
thorax -0.006511384059979974 -1.1624341253595245 3.2754801039297607
lowerneck -25.392892802475618 -1.741778059602273 -8.081148334810342
upperneck 27.32102381707748 0.17584852736044598 2.355104350986997
head 13.384545970313717 -0.5589689984503463 2.380107377339501
rclavicle 7.296749300982763E-16 -1.7402243733026136E-16
rhumerus -33.75104917586957 -4.393282123038333 -78.88556646829608
rradius 29.033325011274858
rwrist 20.4209452409607
rhand -17.476890345243746 8.855803100311187
rfingers 7.125019999999937
rthumb 8.771570697345803 -20.92771867126952
lclavicle 7.878351207349181E-16 5.500011421324109E-16
lhumerus -20.818494178678094 -7.832962774528037 91.31807294600196
lradius 66.24710591299743
lwrist 2.9034029938333323
lhand -28.673359421491085 21.875555424274346
lfingers 7.125020000000022
lthumb -2.0538099103282486 51.913094783940544
rfemur -32.8509089589756 2.976924719912012 16.997520693091754
rtibia 35.801440595127815
rfoot -6.037152773345348 -11.86023457045574
rtoes -3.027359028512069
lfemur 10.664902740837546 -3.0291675281168313 -31.346576287197355
ltibia 19.478391592350146
lfoot -20.116490378795973 -2.1733184376174117
ltoes -2.0757199955179413
18
root 0 0 0 2.0248173030749 -11.002049228059429 1.021958157303225
lowerback -0.4301239718822445 -1.8006127181511364 -2.810853525239484
upperback -0.42989680548432885 -2.367583100548523 1.7404672819127731
thorax 0.002742883908956717 -1.174652885188975 3.3186458595973227
lowerneck -25.79250332195496 -1.7821791475409219 -8.05082977044295
upperneck 26.730270772618695 0.13833756908974915 2.40651813674609
head 13.248286887621697 -0.5533014576298658 2.382748615199152
rclavicle 3.1256594045356016E-15 -1.102356986232714E-15
rhumerus -33.90524394764555 -3.7127586819955063 -78.38458719767733
rradius 28.702221893777487
rwrist 20.40618140204976
rhand -17.603346601810856 8.949302215781914
rfingers 7.125019999999935
rthumb 8.649225585580204 -20.83330511734798
lclavicle 2.247563650642108E-15 4.894685393052198E-16
lhumerus -20.663872761398157 -8.943046163111894 91.22752582379233
lradius 66.80614104021457
lwrist 3.2667597628935936
lhand -28.652198951221038 22.446751681354794
lfingers 7.125020000000021
lthumb -2.037435881270376 52.49842735239996
rfemur -33.08431406252814 4.48948501906616 17.608771204234834
rtibia 26.095630821319727
rfoot -6.956153021762028 -13.212377098037887
rtoes -3.868166236016285
lfemur 17.020112761639535 -3.3149567230550603 -31.21100476634595
ltibia 19.948381381936862
lfoot -16.707877561817245 -4.721705743583365
ltoes -6.881687295601483
19
root 0 0 0 2.002844328536692 -10.971390028241002 1.0571250724705195
lowerback -0.35858779189982193 -1.7929241605591724 -2.7877048904867165
upperback -0.45775919882325083 -2.3597675089341505 1.8295955260605434
thorax -0.06256643678655016 -1.1695669031694556 3.3982500635205115
lowerneck -26.37866992123291 -1.8334089511761948 -7.9301936235913075
upperneck 25.683935135841573 0.09885087626956057 2.451348148887882
head 12.99034350362014 -0.5428419602413759 2.3663817820902926
rclavicle 3.87226414962923E-15 -1.673513688064301E-15
rhumerus -33.99927756525824 -3.0025322346476986 -77.9883075440953
rradius 28.465630442135346
rwrist 20.375405262683024
rhand -17.735603560193088 9.0168827384026
rfingers 7.125019999999936
rthumb 8.52160313171956 -20.77333597237135
lclavicle 2.790441548879031E-15 5.018781262777062E-16
lhumerus -20.39769575106229 -9.890188794580132 91.07899335008472
lradius 67.26819227944941
lwrist 3.5970661009946077
lhand -28.640561970411646 22.94677734128689
lfingers 7.125020000000017
lthumb -2.029124789082956 53.00903297009033
rfemur -33.58848463316104 5.246644185473743 18.1777576036383
rtibia 21.20001724687322
rfoot -7.299664712299158 -13.322800942186428
rtoes -3.8798127292149625
lfemur 21.807820482267964 -3.6988976681204813 -29.737928550884387
ltibia 23.798341274046265
lfoot -11.23244556576184 -8.353705803898194
ltoes -12.912046775579002
